<mxfile host="app.diagrams.net" modified="2024-04-22T07:12:07.506Z" agent="Mozilla/5.0 (Windows NT 10.0; Win64; x64) AppleWebKit/537.36 (KHTML, like Gecko) Chrome/123.0.0.0 Safari/537.36 Edg/123.0.0.0" etag="aEkbv44NmvyRAvfvrPKf" version="24.2.3" type="github">
  <diagram name="第 1 页" id="oPksK_VWfnKLe-3PXf68">
    <mxGraphModel dx="912" dy="1392" grid="0" gridSize="10" guides="1" tooltips="1" connect="1" arrows="1" fold="1" page="0" pageScale="1" pageWidth="827" pageHeight="1169" math="0" shadow="0">
      <root>
        <mxCell id="0" />
        <mxCell id="1" parent="0" />
        <mxCell id="J2I2nbWWf9fKpHjtiENb-2" value="rq" style="swimlane;fontStyle=1;align=center;verticalAlign=top;childLayout=stackLayout;horizontal=1;startSize=26;horizontalStack=0;resizeParent=1;resizeParentMax=0;resizeLast=0;collapsible=1;marginBottom=0;whiteSpace=wrap;html=1;" vertex="1" parent="1">
          <mxGeometry x="218" y="-144" width="66" height="52" as="geometry">
            <mxRectangle x="218" y="-144" width="46" height="26" as="alternateBounds" />
          </mxGeometry>
        </mxCell>
        <mxCell id="J2I2nbWWf9fKpHjtiENb-3" value="cfs_rq" style="text;strokeColor=none;fillColor=none;align=center;verticalAlign=top;spacingLeft=4;spacingRight=4;overflow=hidden;rotatable=0;points=[[0,0.5],[1,0.5]];portConstraint=eastwest;whiteSpace=wrap;html=1;" vertex="1" parent="J2I2nbWWf9fKpHjtiENb-2">
          <mxGeometry y="26" width="66" height="26" as="geometry" />
        </mxCell>
        <mxCell id="J2I2nbWWf9fKpHjtiENb-6" value="CPU 0&amp;nbsp;" style="text;html=1;align=center;verticalAlign=middle;resizable=0;points=[];autosize=1;strokeColor=none;fillColor=none;" vertex="1" parent="1">
          <mxGeometry x="222.5" y="-174" width="57" height="26" as="geometry" />
        </mxCell>
        <mxCell id="J2I2nbWWf9fKpHjtiENb-7" value="rq" style="swimlane;fontStyle=1;align=center;verticalAlign=top;childLayout=stackLayout;horizontal=1;startSize=26;horizontalStack=0;resizeParent=1;resizeParentMax=0;resizeLast=0;collapsible=1;marginBottom=0;whiteSpace=wrap;html=1;" vertex="1" parent="1">
          <mxGeometry x="382" y="-144" width="66" height="52" as="geometry">
            <mxRectangle x="218" y="-144" width="46" height="26" as="alternateBounds" />
          </mxGeometry>
        </mxCell>
        <mxCell id="J2I2nbWWf9fKpHjtiENb-8" value="cfs_rq" style="text;strokeColor=none;fillColor=none;align=center;verticalAlign=top;spacingLeft=4;spacingRight=4;overflow=hidden;rotatable=0;points=[[0,0.5],[1,0.5]];portConstraint=eastwest;whiteSpace=wrap;html=1;" vertex="1" parent="J2I2nbWWf9fKpHjtiENb-7">
          <mxGeometry y="26" width="66" height="26" as="geometry" />
        </mxCell>
        <mxCell id="J2I2nbWWf9fKpHjtiENb-9" value="CPU 1&amp;nbsp;" style="text;html=1;align=center;verticalAlign=middle;resizable=0;points=[];autosize=1;strokeColor=none;fillColor=none;" vertex="1" parent="1">
          <mxGeometry x="384" y="-174" width="57" height="26" as="geometry" />
        </mxCell>
        <mxCell id="J2I2nbWWf9fKpHjtiENb-17" value="task_group" style="swimlane;fontStyle=1;align=center;verticalAlign=top;childLayout=stackLayout;horizontal=1;startSize=26;horizontalStack=0;resizeParent=1;resizeParentMax=0;resizeLast=0;collapsible=1;marginBottom=0;whiteSpace=wrap;html=1;" vertex="1" parent="1">
          <mxGeometry x="72" y="54" width="106" height="88" as="geometry" />
        </mxCell>
        <mxCell id="J2I2nbWWf9fKpHjtiENb-18" value="cfs_rq[n]" style="text;strokeColor=none;fillColor=none;align=center;verticalAlign=top;spacingLeft=4;spacingRight=4;overflow=hidden;rotatable=0;points=[[0,0.5],[1,0.5]];portConstraint=eastwest;whiteSpace=wrap;html=1;" vertex="1" parent="J2I2nbWWf9fKpHjtiENb-17">
          <mxGeometry y="26" width="106" height="26" as="geometry" />
        </mxCell>
        <mxCell id="J2I2nbWWf9fKpHjtiENb-19" value="" style="line;strokeWidth=1;fillColor=none;align=center;verticalAlign=middle;spacingTop=-1;spacingLeft=3;spacingRight=3;rotatable=0;labelPosition=right;points=[];portConstraint=eastwest;strokeColor=inherit;" vertex="1" parent="J2I2nbWWf9fKpHjtiENb-17">
          <mxGeometry y="52" width="106" height="8" as="geometry" />
        </mxCell>
        <mxCell id="J2I2nbWWf9fKpHjtiENb-20" value="se[n]" style="text;strokeColor=none;fillColor=none;align=center;verticalAlign=top;spacingLeft=4;spacingRight=4;overflow=hidden;rotatable=0;points=[[0,0.5],[1,0.5]];portConstraint=eastwest;whiteSpace=wrap;html=1;" vertex="1" parent="J2I2nbWWf9fKpHjtiENb-17">
          <mxGeometry y="60" width="106" height="28" as="geometry" />
        </mxCell>
        <mxCell id="J2I2nbWWf9fKpHjtiENb-28" value="se[0]" style="html=1;whiteSpace=wrap;" vertex="1" parent="1">
          <mxGeometry x="233" y="169" width="75" height="26" as="geometry" />
        </mxCell>
        <mxCell id="J2I2nbWWf9fKpHjtiENb-29" value="se[1]" style="html=1;whiteSpace=wrap;" vertex="1" parent="1">
          <mxGeometry x="330" y="169" width="75" height="26" as="geometry" />
        </mxCell>
        <mxCell id="J2I2nbWWf9fKpHjtiENb-36" style="edgeStyle=orthogonalEdgeStyle;rounded=1;orthogonalLoop=1;jettySize=auto;html=1;exitX=1;exitY=0.5;exitDx=0;exitDy=0;entryX=0;entryY=0.25;entryDx=0;entryDy=0;curved=0;strokeColor=#CCCCCC;" edge="1" parent="1" source="J2I2nbWWf9fKpHjtiENb-20" target="J2I2nbWWf9fKpHjtiENb-28">
          <mxGeometry relative="1" as="geometry" />
        </mxCell>
        <mxCell id="J2I2nbWWf9fKpHjtiENb-37" value="cfs_rq[0]" style="swimlane;fontStyle=1;align=center;verticalAlign=top;childLayout=stackLayout;horizontal=1;startSize=26;horizontalStack=0;resizeParent=1;resizeParentMax=0;resizeLast=0;collapsible=1;marginBottom=0;whiteSpace=wrap;html=1;" vertex="1" parent="1">
          <mxGeometry x="233" y="64" width="81" height="52" as="geometry">
            <mxRectangle x="218" y="-144" width="46" height="26" as="alternateBounds" />
          </mxGeometry>
        </mxCell>
        <mxCell id="J2I2nbWWf9fKpHjtiENb-38" value="rq" style="text;strokeColor=none;fillColor=none;align=center;verticalAlign=top;spacingLeft=4;spacingRight=4;overflow=hidden;rotatable=0;points=[[0,0.5],[1,0.5]];portConstraint=eastwest;whiteSpace=wrap;html=1;" vertex="1" parent="J2I2nbWWf9fKpHjtiENb-37">
          <mxGeometry y="26" width="81" height="26" as="geometry" />
        </mxCell>
        <mxCell id="J2I2nbWWf9fKpHjtiENb-39" value="cfs_rq[1]" style="swimlane;fontStyle=1;align=center;verticalAlign=top;childLayout=stackLayout;horizontal=1;startSize=26;horizontalStack=0;resizeParent=1;resizeParentMax=0;resizeLast=0;collapsible=1;marginBottom=0;whiteSpace=wrap;html=1;" vertex="1" parent="1">
          <mxGeometry x="350" y="64" width="87" height="52" as="geometry">
            <mxRectangle x="218" y="-144" width="46" height="26" as="alternateBounds" />
          </mxGeometry>
        </mxCell>
        <mxCell id="J2I2nbWWf9fKpHjtiENb-40" value="rq" style="text;strokeColor=none;fillColor=none;align=center;verticalAlign=top;spacingLeft=4;spacingRight=4;overflow=hidden;rotatable=0;points=[[0,0.5],[1,0.5]];portConstraint=eastwest;whiteSpace=wrap;html=1;" vertex="1" parent="J2I2nbWWf9fKpHjtiENb-39">
          <mxGeometry y="26" width="87" height="26" as="geometry" />
        </mxCell>
        <mxCell id="J2I2nbWWf9fKpHjtiENb-43" style="edgeStyle=orthogonalEdgeStyle;rounded=1;orthogonalLoop=1;jettySize=auto;html=1;exitX=1;exitY=0.5;exitDx=0;exitDy=0;entryX=0;entryY=0.25;entryDx=0;entryDy=0;curved=0;strokeColor=#CCCCCC;" edge="1" parent="1" source="J2I2nbWWf9fKpHjtiENb-18" target="J2I2nbWWf9fKpHjtiENb-37">
          <mxGeometry relative="1" as="geometry" />
        </mxCell>
        <mxCell id="J2I2nbWWf9fKpHjtiENb-44" style="edgeStyle=orthogonalEdgeStyle;rounded=1;orthogonalLoop=1;jettySize=auto;html=1;exitX=1;exitY=0.5;exitDx=0;exitDy=0;entryX=1;entryY=0.25;entryDx=0;entryDy=0;fontColor=#CCCCCC;strokeColor=#CCCCCC;curved=0;" edge="1" parent="1" source="J2I2nbWWf9fKpHjtiENb-38" target="J2I2nbWWf9fKpHjtiENb-2">
          <mxGeometry relative="1" as="geometry" />
        </mxCell>
        <mxCell id="J2I2nbWWf9fKpHjtiENb-45" style="edgeStyle=orthogonalEdgeStyle;rounded=1;orthogonalLoop=1;jettySize=auto;html=1;exitX=1;exitY=0.5;exitDx=0;exitDy=0;entryX=1;entryY=0.25;entryDx=0;entryDy=0;strokeColor=#CCCCCC;curved=0;" edge="1" parent="1" source="J2I2nbWWf9fKpHjtiENb-40" target="J2I2nbWWf9fKpHjtiENb-7">
          <mxGeometry relative="1" as="geometry" />
        </mxCell>
      </root>
    </mxGraphModel>
  </diagram>
</mxfile>
